<?xml version="1.0" encoding="UTF-8"?>
<!DOCTYPE svg PUBLIC "-//W3C//DTD SVG 1.1//EN" "http://www.w3.org/Graphics/SVG/1.1/DTD/svg11.dtd">
<svg xmlns="http://www.w3.org/2000/svg" version="1.1" width="225px" height="225px" style="shape-rendering:geometricPrecision; text-rendering:geometricPrecision; image-rendering:optimizeQuality; fill-rule:evenodd; clip-rule:evenodd" xmlns:xlink="http://www.w3.org/1999/xlink">
<g><path style="opacity:1" fill="#000000" d="M -0.5,-0.5 C 74.5,-0.5 149.5,-0.5 224.5,-0.5C 224.5,74.5 224.5,149.5 224.5,224.5C 149.5,224.5 74.5,224.5 -0.5,224.5C -0.5,149.5 -0.5,74.5 -0.5,-0.5 Z"/></g>
<g><path style="opacity:1" fill="#8f8f8f" d="M 71.5,10.5 C 59.5,10.5 47.5,10.5 35.5,10.5C 35.5,14.1667 35.5,17.8333 35.5,21.5C 34.5166,17.7016 34.1832,13.7016 34.5,9.5C 47.0113,9.17145 59.3446,9.50478 71.5,10.5 Z"/></g>
<g><path style="opacity:1" fill="#818181" d="M 117.5,10.5 C 104.833,10.5 92.1667,10.5 79.5,10.5C 79.8261,19.0168 79.4927,27.3501 78.5,35.5C 78.5,26.8333 78.5,18.1667 78.5,9.5C 91.6774,9.17119 104.677,9.50452 117.5,10.5 Z"/></g>
<g><path style="opacity:1" fill="#fbfbfb" d="M 71.5,10.5 C 71.9904,31.3213 70.4904,51.988 67,72.5C 64.6472,84.2408 59.9806,94.9075 53,104.5C 48.947,80.9057 43.6136,57.5724 37,34.5C 36.2646,30.1866 35.7646,25.8533 35.5,21.5C 35.5,17.8333 35.5,14.1667 35.5,10.5C 47.5,10.5 59.5,10.5 71.5,10.5 Z"/></g>
<g><path style="opacity:1" fill="#fafafa" d="M 117.5,10.5 C 111.7,39.0384 106.533,67.7051 102,96.5C 101.821,107.41 101.321,118.243 100.5,129C 86.2112,136.144 72.2112,143.811 58.5,152C 53.7028,154.21 48.7028,155.71 43.5,156.5C 43.1667,156 42.8333,155.5 42.5,155C 49.3644,142.376 52.8644,128.876 53,114.5C 61.4904,106.873 67.4904,97.5398 71,86.5C 75.5978,69.8154 78.0978,52.8154 78.5,35.5C 79.4927,27.3501 79.8261,19.0168 79.5,10.5C 92.1667,10.5 104.833,10.5 117.5,10.5 Z"/></g>
<g><path style="opacity:1" fill="#181818" d="M 87.5,16.5 C 93.4877,16.664 94.821,19.164 91.5,24C 85.392,24.0781 84.0587,21.5781 87.5,16.5 Z"/></g>
<g><path style="opacity:1" fill="#1a1a1a" d="M 86.5,39.5 C 92.4877,39.664 93.821,42.164 90.5,47C 84.3975,47.2233 83.0642,44.7233 86.5,39.5 Z"/></g>
<g><path style="opacity:1" fill="#0c0c0c" d="M 84.5,64.5 C 88.6046,64.4962 90.1046,66.4962 89,70.5C 85.828,73.3883 83.6614,72.7216 82.5,68.5C 82.7517,66.9271 83.4183,65.5938 84.5,64.5 Z"/></g>
<g><path style="opacity:1" fill="#070707" d="M 76.5,91.5 C 82.1581,90.6794 83.8248,92.846 81.5,98C 75.741,99.1387 74.0744,96.972 76.5,91.5 Z"/></g>
<g><path style="opacity:1" fill="#0a0a0a" d="M 62.5,112.5 C 68.1581,111.679 69.8248,113.846 67.5,119C 61.741,120.139 60.0744,117.972 62.5,112.5 Z"/></g>
<g><path style="opacity:1" fill="#f9f9f9" d="M 100.5,136.5 C 101.5,136.5 102.5,136.5 103.5,136.5C 104.276,142.877 107.276,148.043 112.5,152C 98.7476,160.088 87.2476,170.588 78,183.5C 74.9845,188.525 72.8178,193.858 71.5,199.5C 59.1667,199.5 46.8333,199.5 34.5,199.5C 33.6014,187.208 34.9347,175.208 38.5,163.5C 46.485,163.603 54.1517,162.103 61.5,159C 74.8896,151.978 87.8896,144.478 100.5,136.5 Z"/></g>
<g><path style="opacity:1" fill="#fdfdfd" d="M 135.5,190.5 C 134.527,192.948 134.194,195.615 134.5,198.5C 116.167,198.5 97.8333,198.5 79.5,198.5C 87.4491,179.384 100.949,165.717 120,157.5C 127.342,160.587 134.842,163.253 142.5,165.5C 137.929,173.212 135.596,181.545 135.5,190.5 Z"/></g>
<g><path style="opacity:1" fill="#f9f9f9" d="M 188.5,198.5 C 173.5,198.5 158.5,198.5 143.5,198.5C 143.5,195.5 143.5,192.5 143.5,189.5C 143.192,180.405 146.192,172.738 152.5,166.5C 165.831,167.743 176.331,173.743 184,184.5C 186.409,188.892 187.909,193.558 188.5,198.5 Z"/></g>
<g><path style="opacity:1" fill="#090909" d="M 152.5,171.5 C 158.158,170.679 159.825,172.846 157.5,178C 151.741,179.139 150.074,176.972 152.5,171.5 Z"/></g>
<g><path style="opacity:1" fill="#161616" d="M 41.5,186.5 C 47.5006,186.741 48.8339,189.241 45.5,194C 39.4034,194.147 38.0701,191.647 41.5,186.5 Z"/></g>
<g><path style="opacity:1" fill="#090909" d="M 60.5,187.5 C 66.1581,186.679 67.8248,188.846 65.5,194C 60.1833,194.73 58.5167,192.563 60.5,187.5 Z"/></g>
<g><path style="opacity:1" fill="#0b0b0b" d="M 149.5,187.5 C 155.148,187.311 156.482,189.478 153.5,194C 147.738,194.418 146.404,192.251 149.5,187.5 Z"/></g>
<g><path style="opacity:1" fill="#a8a8a8" d="M 135.5,190.5 C 135.5,193.5 135.5,196.5 135.5,199.5C 116.659,199.83 97.9925,199.497 79.5,198.5C 97.8333,198.5 116.167,198.5 134.5,198.5C 134.194,195.615 134.527,192.948 135.5,190.5 Z"/></g>
<g><path style="opacity:1" fill="#a2a2a2" d="M 143.5,189.5 C 143.5,192.5 143.5,195.5 143.5,198.5C 158.5,198.5 173.5,198.5 188.5,198.5C 173.342,199.496 158.009,199.83 142.5,199.5C 142.187,195.958 142.521,192.625 143.5,189.5 Z"/></g>
<g><path style="opacity:1" fill="#848484" d="M 31.5,206.5 C 85.3308,205.501 139.331,205.168 193.5,205.5C 193.81,208.713 193.477,211.713 192.5,214.5C 192.5,214.167 192.5,213.833 192.5,213.5C 192.5,211.167 192.5,208.833 192.5,206.5C 138.833,206.5 85.1667,206.5 31.5,206.5 Z"/></g>
<g><path style="opacity:1" fill="#fefffe" d="M 31.5,206.5 C 85.1667,206.5 138.833,206.5 192.5,206.5C 192.5,208.833 192.5,211.167 192.5,213.5C 138.833,213.5 85.1667,213.5 31.5,213.5C 31.5,211.167 31.5,208.833 31.5,206.5 Z"/></g>
<g><path style="opacity:1" fill="#a0a0a0" d="M 31.5,206.5 C 31.5,208.833 31.5,211.167 31.5,213.5C 85.1667,213.5 138.833,213.5 192.5,213.5C 192.5,213.833 192.5,214.167 192.5,214.5C 138.5,214.5 84.5,214.5 30.5,214.5C 30.1936,211.615 30.5269,208.948 31.5,206.5 Z"/></g>
</svg>
