<?xml version="1.0" encoding="UTF-8"?>
<!DOCTYPE svg PUBLIC "-//W3C//DTD SVG 1.1//EN" "http://www.w3.org/Graphics/SVG/1.1/DTD/svg11.dtd">
<svg xmlns="http://www.w3.org/2000/svg" version="1.1" width="512px" height="512px" style="shape-rendering:geometricPrecision; text-rendering:geometricPrecision; image-rendering:optimizeQuality; fill-rule:evenodd; clip-rule:evenodd" xmlns:xlink="http://www.w3.org/1999/xlink">
<g><path style="opacity:0.982" fill="#010101" d="M 511.5,160.5 C 511.5,163.167 511.5,165.833 511.5,168.5C 507.852,171.997 503.519,174.497 498.5,176C 497.919,176.893 497.585,177.893 497.5,179C 499.934,191.936 501.934,204.936 503.5,218C 503.665,220.917 502.998,223.583 501.5,226C 476.064,232.788 450.397,238.621 424.5,243.5C 420.719,244.173 417.886,242.839 416,239.5C 414.53,234.757 412.864,230.091 411,225.5C 407.735,232.421 404.068,239.087 400,245.5C 394.753,308.888 389.086,372.221 383,435.5C 380.374,438.231 377.207,440.064 373.5,441C 334.314,455.672 294.981,469.839 255.5,483.5C 216.019,469.839 176.686,455.672 137.5,441C 133.793,440.064 130.626,438.231 128,435.5C 121.949,372.551 116.282,309.551 111,246.5C 107.735,239.579 104.068,232.913 100,226.5C 97.9504,230.643 96.2838,234.976 95,239.5C 93.1144,242.839 90.2811,244.173 86.5,243.5C 60.6025,238.621 34.9358,232.788 9.5,226C 7.48956,221.391 6.98956,216.558 8,211.5C 9.77936,200.657 11.6127,189.824 13.5,179C 13.4148,177.893 13.0814,176.893 12.5,176C 7.48126,174.497 3.14793,171.997 -0.5,168.5C -0.5,165.833 -0.5,163.167 -0.5,160.5C 11.3029,145.853 22.9696,131.02 34.5,116C 31,111.833 27.5,107.667 24,103.5C 23.1834,100.036 23.5167,96.7024 25,93.5C 59.0828,72.208 93.2495,51.0414 127.5,30C 129.717,28.7246 132.051,27.7246 134.5,27C 215.167,26.3333 295.833,26.3333 376.5,27C 378.949,27.7246 381.283,28.7246 383.5,30C 417.75,51.0414 451.917,72.208 486,93.5C 487.483,96.7024 487.817,100.036 487,103.5C 483.5,107.667 480,111.833 476.5,116C 488.03,131.02 499.697,145.853 511.5,160.5 Z"/></g>
<g><path style="opacity:1" fill="#646c77" d="M 150.5,43.5 C 158.174,43.3336 165.841,43.5003 173.5,44C 197.689,63.6899 222.022,83.1899 246.5,102.5C 247.332,110.479 247.832,118.479 248,126.5C 253,133.167 258,133.167 263,126.5C 263.168,118.479 263.668,110.479 264.5,102.5C 288.978,83.1899 313.311,63.6899 337.5,44C 345.188,43.1685 352.855,43.3352 360.5,44.5C 348.71,62.4232 337.71,80.7565 327.5,99.5C 327.556,102.111 328.556,104.278 330.5,106C 339.665,111.081 348.665,116.415 357.5,122C 369.71,135.874 381.543,150.041 393,164.5C 397.066,176.933 400.9,189.433 404.5,202C 399.489,211.852 394.323,221.686 389,231.5C 388.282,232.451 387.449,232.617 386.5,232C 346.532,210.681 306.532,189.348 266.5,168C 263.04,165.935 259.374,164.435 255.5,163.5C 250.956,164.77 246.623,166.603 242.5,169C 202.746,190.294 162.913,211.461 123,232.5C 116.633,222.8 111.133,212.633 106.5,202C 110.1,189.433 113.934,176.933 118,164.5C 129.457,150.041 141.29,135.874 153.5,122C 162.335,116.415 171.335,111.081 180.5,106C 183.769,102.547 184.269,98.7135 182,94.5C 170.977,77.779 160.477,60.779 150.5,43.5 Z"/></g>
<g><path style="opacity:1" fill="#424953" d="M 199.5,44.5 C 236.664,43.3356 273.998,43.1689 311.5,44C 293.265,59.404 274.599,74.2374 255.5,88.5C 236.528,74.1909 217.861,59.5242 199.5,44.5 Z"/></g>
<g><path style="opacity:1" fill="#a8b0bb" d="M 131.5,46.5 C 133.785,47.9568 135.618,49.9568 137,52.5C 144.938,66.0992 153.271,79.4326 162,92.5C 163.187,94.0444 163.52,95.7111 163,97.5C 137.75,112.541 112.584,127.708 87.5,143C 85.9556,144.187 84.2889,144.52 82.5,144C 71.6828,131.549 60.5162,119.382 49,107.5C 47.0806,105.309 45.7473,102.976 45,100.5C 73.9815,82.6002 102.815,64.6002 131.5,46.5 Z"/></g>
<g><path style="opacity:1" fill="#a8b0bb" d="M 377.5,46.5 C 407.097,64.2476 436.597,82.2476 466,100.5C 465.253,102.976 463.919,105.309 462,107.5C 450.484,119.382 439.317,131.549 428.5,144C 425.983,144.257 423.65,143.59 421.5,142C 397.083,127.041 372.583,112.208 348,97.5C 347.48,95.7111 347.813,94.0444 349,92.5C 358.773,77.2784 368.273,61.945 377.5,46.5 Z"/></g>
<g><path style="opacity:1" fill="#c8cdd5" d="M 45.5,128.5 C 47.0174,128.511 48.1841,129.177 49,130.5C 58.4639,141.632 68.2973,152.466 78.5,163C 80.5,163.667 82.5,163.667 84.5,163C 91.1667,159 97.8333,155 104.5,151C 105.759,150.018 107.092,149.685 108.5,150C 98.2921,161.206 88.4588,172.706 79,184.5C 77.6124,185.554 76.1124,185.72 74.5,185C 56.2989,177.38 38.2989,169.38 20.5,161C 28.721,150.046 37.0544,139.213 45.5,128.5 Z"/></g>
<g><path style="opacity:1" fill="#c8cdd5" d="M 463.5,128.5 C 465.017,128.511 466.184,129.177 467,130.5C 474.712,140.757 482.546,150.924 490.5,161C 472.534,168.992 454.534,176.992 436.5,185C 434.888,185.72 433.388,185.554 432,184.5C 422.208,172.372 412.041,160.539 401.5,149C 409.814,153.333 418.147,158 426.5,163C 428.913,163.484 431.246,163.15 433.5,162C 444.078,151.26 454.078,140.094 463.5,128.5 Z"/></g>
<g><path style="opacity:1" fill="#424953" d="M 254.5,180.5 C 274.798,190.649 294.798,201.315 314.5,212.5C 294.855,220.326 275.022,227.66 255,234.5C 235.732,227.799 216.565,220.799 197.5,213.5C 196.289,212.726 196.289,211.893 197.5,211C 216.88,201.314 235.88,191.147 254.5,180.5 Z"/></g>
<g><path style="opacity:1" fill="#a6aeb9" d="M 29.5,183.5 C 44.9197,189.699 60.253,196.199 75.5,203C 78.634,203.79 81.634,203.457 84.5,202C 87.021,199.78 89.1877,197.28 91,194.5C 88.2953,204.793 85.462,215.127 82.5,225.5C 63.3474,222.269 44.3474,218.269 25.5,213.5C 25.7332,203.421 27.0665,193.421 29.5,183.5 Z"/></g>
<g><path style="opacity:1" fill="#a6aeb9" d="M 478.5,183.5 C 479.822,183.33 480.989,183.663 482,184.5C 483.719,194.147 485.219,203.814 486.5,213.5C 467.205,217.716 447.871,221.716 428.5,225.5C 425.538,215.127 422.705,204.793 420,194.5C 421.812,197.28 423.979,199.78 426.5,202C 429.03,203.422 431.697,203.755 434.5,203C 449.374,196.724 464.041,190.224 478.5,183.5 Z"/></g>
<g><path style="opacity:1" fill="#646c77" d="M 183.5,225.5 C 207.423,234.363 231.423,243.03 255.5,251.5C 279.255,243.125 302.922,234.458 326.5,225.5C 327.833,246.5 327.833,267.5 326.5,288.5C 302.817,297.592 278.984,306.259 255,314.5C 231.77,306.201 208.603,297.701 185.5,289C 183.518,268.065 182.851,246.899 183.5,225.5 Z"/></g>
<g><path style="opacity:1" fill="#a9b1bc" d="M 165.5,227.5 C 166.833,261.66 167.5,296.16 167.5,331C 167.333,365.5 167.167,400 167,434.5C 159.223,431.407 151.389,428.407 143.5,425.5C 138.24,368.359 133.24,311.192 128.5,254C 128.53,251.576 128.863,249.243 129.5,247C 141.721,240.726 153.721,234.226 165.5,227.5 Z"/></g>
<g><path style="opacity:1" fill="#a9b1bc" d="M 343.5,227.5 C 356.516,233.758 369.349,240.425 382,247.5C 377.738,306.832 373.238,366.165 368.5,425.5C 360.083,427.806 351.916,430.806 344,434.5C 343.5,365.501 343.333,296.501 343.5,227.5 Z"/></g>
<g><path style="opacity:1" fill="#424953" d="M 183.5,305.5 C 207.423,314.363 231.423,323.03 255.5,331.5C 279.297,323.234 302.964,314.567 326.5,305.5C 327.833,326.5 327.833,347.5 326.5,368.5C 302.817,377.592 278.984,386.259 255,394.5C 231.77,386.201 208.603,377.701 185.5,369C 183.518,348.065 182.851,326.899 183.5,305.5 Z"/></g>
<g><path style="opacity:1" fill="#646c77" d="M 183.5,385.5 C 207.423,394.363 231.423,403.03 255.5,411.5C 279.297,403.234 302.964,394.567 326.5,385.5C 327.833,403.833 327.833,422.167 326.5,440.5C 302.817,449.592 278.984,458.259 255,466.5C 231.398,458.132 207.898,449.466 184.5,440.5C 183.5,422.179 183.167,403.845 183.5,385.5 Z"/></g>
</svg>
