<?xml version="1.0" encoding="UTF-8"?>
<!DOCTYPE svg PUBLIC "-//W3C//DTD SVG 1.1//EN" "http://www.w3.org/Graphics/SVG/1.1/DTD/svg11.dtd">
<svg xmlns="http://www.w3.org/2000/svg" version="1.1" width="512px" height="512px" style="shape-rendering:geometricPrecision; text-rendering:geometricPrecision; image-rendering:optimizeQuality; fill-rule:evenodd; clip-rule:evenodd" xmlns:xlink="http://www.w3.org/1999/xlink">
<g><path style="opacity:0.981" fill="#000100" d="M 144.5,7.5 C 152.16,6.36812 159.16,7.86812 165.5,12C 172.031,22.221 178.198,32.721 184,43.5C 200.251,67.085 219.918,87.4184 243,104.5C 244.861,106.888 246.194,109.554 247,112.5C 247.5,120.159 247.666,127.826 247.5,135.5C 235.829,135.333 224.162,135.5 212.5,136C 220.667,144.167 228.833,152.333 237,160.5C 242.567,167.971 246.234,176.304 248,185.5C 267.501,165.544 289.667,162.044 314.5,175C 316.641,176.308 318.641,177.808 320.5,179.5C 322.865,173.933 325.865,168.766 329.5,164C 323.662,143.51 329.662,127.51 347.5,116C 352.337,113.708 357.337,111.875 362.5,110.5C 374.473,89.4464 392.14,82.613 415.5,90C 424.971,94.3048 431.971,101.138 436.5,110.5C 462.376,117.214 473.876,133.881 471,160.5C 470.691,161.766 470.191,162.933 469.5,164C 480.417,177.924 482.417,193.09 475.5,209.5C 488.544,224.486 491.044,241.153 483,259.5C 480.382,264.451 476.716,268.451 472,271.5C 473.99,293.796 464.824,309.296 444.5,318C 431.442,321.404 419.276,319.57 408,312.5C 407.5,330.83 407.333,349.164 407.5,367.5C 423.719,368.067 434.052,376.067 438.5,391.5C 455.57,391.043 472.57,391.543 489.5,393C 504.045,401.843 507.545,414.009 500,429.5C 496.586,434.252 492.086,437.419 486.5,439C 452.167,439.333 417.833,439.667 383.5,440C 376.653,441.866 374.82,446.032 378,452.5C 378.75,453.126 379.584,453.626 380.5,454C 391.762,455.267 403.095,455.934 414.5,456C 429.758,462.356 434.925,473.523 430,489.5C 426.686,496.149 421.519,500.649 414.5,503C 305.833,503.667 197.167,503.667 88.5,503C 74.1697,497.34 68.8364,487.007 72.5,472C 56.5,471.667 40.5,471.333 24.5,471C 10.5184,465.543 5.01844,455.376 8,440.5C 10.3513,433.481 14.8513,428.314 21.5,425C 32.762,423.733 44.0954,423.066 55.5,423C 57.519,422.55 59.3523,421.717 61,420.5C 62.5444,414.024 64.5444,407.69 67,401.5C 71.8689,394.982 78.3689,391.482 86.5,391C 79.9127,381.144 77.746,370.311 80,358.5C 82.9814,345.538 90.4814,336.205 102.5,330.5C 107.334,308.323 121.001,296.657 143.5,295.5C 143.5,284.833 143.5,274.167 143.5,263.5C 114.167,263.5 84.8333,263.5 55.5,263.5C 53.438,248.406 57.2714,235.073 67,223.5C 74.8333,215.667 82.6667,207.833 90.5,200C 78.8381,199.5 67.1714,199.333 55.5,199.5C 53.7352,186.896 56.2352,175.229 63,164.5C 71.8029,154.696 80.9695,145.196 90.5,136C 78.8381,135.5 67.1714,135.333 55.5,135.5C 55.3336,127.826 55.5003,120.159 56,112.5C 56.7246,110.051 57.7246,107.717 59,105.5C 82.4154,88.0855 102.415,67.4188 119,43.5C 124.587,33.9941 129.92,24.3274 135,14.5C 138.068,11.9174 141.235,9.58407 144.5,7.5 Z M 212.5,200.5 C 220.656,199.343 228.99,199.177 237.5,200C 234.479,205.394 231.645,210.894 229,216.5C 223.631,210.964 218.131,205.63 212.5,200.5 Z M 159.5,263.5 C 180.833,263.5 202.167,263.5 223.5,263.5C 224.821,292.028 236.154,315.528 257.5,334C 264.147,338.408 271.314,341.575 279,343.5C 279.5,359.497 279.667,375.497 279.5,391.5C 269.161,391.666 258.828,391.5 248.5,391C 255.087,381.144 257.254,370.311 255,358.5C 251.44,343.939 242.606,334.106 228.5,329C 221.563,327.827 214.563,327.16 207.5,327C 199.584,316.375 188.918,311.042 175.5,311C 171.251,305.756 166.084,301.589 160,298.5C 159.5,286.838 159.333,275.171 159.5,263.5 Z M 338.5,308.5 C 349.327,318.209 361.993,321.709 376.5,319C 381.634,317.516 386.468,315.35 391,312.5C 391.667,326.833 391.667,341.167 391,355.5C 388.913,354.206 386.746,353.039 384.5,352C 371.585,336.016 355.251,331.349 335.5,338C 321.586,344.921 313.419,356.088 311,371.5C 303.377,376.133 298.377,382.8 296,391.5C 295.333,375.5 295.333,359.5 296,343.5C 315.755,338.575 329.922,326.908 338.5,308.5 Z"/></g>
<g><path style="opacity:1" fill="#8bc051" d="M 149.5,23.5 C 152.325,23.0807 154.491,24.0807 156,26.5C 172.626,62.2325 197.126,91.3992 229.5,114C 230.861,115.584 231.528,117.418 231.5,119.5C 212.833,119.5 194.167,119.5 175.5,119.5C 175.5,124.833 175.5,130.167 175.5,135.5C 179.846,135.334 184.179,135.501 188.5,136C 200.667,148.167 212.833,160.333 225,172.5C 227.087,175.673 228.921,179.006 230.5,182.5C 212.179,183.5 193.845,183.833 175.5,183.5C 175.5,188.833 175.5,194.167 175.5,199.5C 179.846,199.334 184.179,199.501 188.5,200C 200.333,211.833 212.167,223.667 224,235.5C 224.499,239.486 224.666,243.486 224.5,247.5C 173.829,247.833 123.162,247.5 72.5,246.5C 74.0795,243.006 75.9128,239.673 78,236.5C 90.1667,224.333 102.333,212.167 114.5,200C 118.821,199.501 123.154,199.334 127.5,199.5C 127.5,194.167 127.5,188.833 127.5,183.5C 109.155,183.833 90.8212,183.5 72.5,182.5C 74.0795,179.006 75.9128,175.673 78,172.5C 90.1667,160.333 102.333,148.167 114.5,136C 118.821,135.501 123.154,135.334 127.5,135.5C 127.5,130.167 127.5,124.833 127.5,119.5C 108.833,119.5 90.1667,119.5 71.5,119.5C 71.472,117.418 72.1387,115.584 73.5,114C 97.421,97.413 117.254,76.913 133,52.5C 138.512,42.806 144.012,33.1393 149.5,23.5 Z"/></g>
<g><path style="opacity:1" fill="#b2db7e" d="M 393.5,103.5 C 410.966,102.309 420.966,110.309 423.5,127.5C 438.796,125.326 449.296,131.326 455,145.5C 455.667,149.5 455.667,153.5 455,157.5C 453.167,161.167 451.333,164.833 449.5,168.5C 467.396,182.79 468.063,197.957 451.5,214C 460.692,217.859 467.192,224.359 471,233.5C 472.764,243.878 469.597,252.378 461.5,259C 457.806,260.509 454.473,262.509 451.5,265C 459.483,282.389 454.816,295.056 437.5,303C 422.859,305.263 413.025,299.43 408,285.5C 407.333,276.167 407.333,266.833 408,257.5C 417.833,245.167 427.667,232.833 437.5,220.5C 434.314,217.479 430.98,214.646 427.5,212C 426.5,211.333 425.5,211.333 424.5,212C 418.88,218.742 413.38,225.575 408,232.5C 407.5,205.502 407.333,178.502 407.5,151.5C 402.167,151.5 396.833,151.5 391.5,151.5C 391.667,167.837 391.5,184.17 391,200.5C 385.407,192.984 379.574,185.651 373.5,178.5C 369.5,181.833 365.5,185.167 361.5,188.5C 371.333,200.833 381.167,213.167 391,225.5C 391.667,245.5 391.667,265.5 391,285.5C 385.115,300.687 374.281,306.187 358.5,302C 352.723,299.226 348.723,294.893 346.5,289C 355.615,257.309 352.115,227.142 336,198.5C 334.451,190.881 335.784,183.881 340,177.5C 343.042,174.289 346.209,171.289 349.5,168.5C 339.043,152.109 342.043,138.942 358.5,129C 364.072,127.649 369.738,127.149 375.5,127.5C 376.552,115.782 382.552,107.782 393.5,103.5 Z"/></g>
<g><path style="opacity:1" fill="#9ed166" d="M 280.5,183.5 C 295.866,182.099 308.366,187.433 318,199.5C 332.546,220.21 338.213,243.21 335,268.5C 332.708,287.748 324.875,304.248 311.5,318C 306.992,322.005 301.825,324.838 296,326.5C 295.333,306.167 295.333,285.833 296,265.5C 305.833,253.167 315.667,240.833 325.5,228.5C 322.314,225.479 318.98,222.646 315.5,220C 314.5,219.333 313.5,219.333 312.5,220C 306.88,226.742 301.38,233.575 296,240.5C 295.5,232.173 295.334,223.84 295.5,215.5C 290.167,215.5 284.833,215.5 279.5,215.5C 279.667,235.836 279.5,256.169 279,276.5C 273.624,268.247 268.124,260.08 262.5,252C 257.637,253.781 253.304,256.615 249.5,260.5C 259.333,275.5 269.167,290.5 279,305.5C 279.831,312.524 279.664,319.524 278.5,326.5C 266.393,321.895 257.227,313.895 251,302.5C 235.796,271.12 235.796,239.786 251,208.5C 257.694,196.294 267.527,187.961 280.5,183.5 Z"/></g>
<g><path style="opacity:1" fill="#b3db7e" d="M 137.5,311.5 C 151.387,310.526 161.553,316.193 168,328.5C 178.84,325.96 187.84,328.96 195,337.5C 197.009,340.903 199.009,344.236 201,347.5C 218.416,339.526 231.083,344.192 239,361.5C 240.037,367.394 239.371,373.061 237,378.5C 233.643,382.356 230.476,386.356 227.5,390.5C 187.838,391.667 148.171,391.833 108.5,391C 103.14,385.98 98.9732,380.147 96,373.5C 94.3249,356.012 102.158,346.012 119.5,343.5C 117.24,328.007 123.24,317.34 137.5,311.5 Z"/></g>
<g><path style="opacity:1" fill="#9ed166" d="M 345.5,351.5 C 358.592,350.378 368.259,355.545 374.5,367C 385.905,368.741 392.239,375.407 393.5,387C 397.846,385.67 402.346,384.504 407,383.5C 412.574,383.87 417.074,386.203 420.5,390.5C 385.167,391.833 349.833,391.833 314.5,390.5C 317.681,386.66 321.681,383.993 326.5,382.5C 325.501,367.47 331.835,357.137 345.5,351.5 Z"/></g>
<g><path style="opacity:1" fill="#68d5f3" d="M 84.5,407.5 C 217.167,407.333 349.834,407.5 482.5,408C 487.535,411.013 488.702,415.18 486,420.5C 485.097,421.701 483.931,422.535 482.5,423C 446.44,423.019 410.44,423.686 374.5,425C 361.842,431.484 357.175,441.651 360.5,455.5C 354.833,455.5 349.167,455.5 343.5,455.5C 343.5,460.833 343.5,466.167 343.5,471.5C 365.836,471.333 388.169,471.5 410.5,472C 415.535,475.013 416.702,479.18 414,484.5C 413.097,485.701 411.931,486.535 410.5,487C 304.5,487.667 198.5,487.667 92.5,487C 87.4648,483.987 86.2981,479.82 89,474.5C 89.9025,473.299 91.0692,472.465 92.5,472C 109.497,471.5 126.497,471.333 143.5,471.5C 143.5,466.167 143.5,460.833 143.5,455.5C 104.414,455.988 65.4143,455.488 26.5,454C 22.0742,448.559 22.7409,443.892 28.5,440C 38.8333,439.667 49.1667,439.333 59.5,439C 73.0462,435.445 79.8795,426.611 80,412.5C 81.025,410.313 82.525,408.646 84.5,407.5 Z"/></g>
<g><path style="opacity:1" fill="#010102" d="M 143.5,423.5 C 155.229,423.088 166.896,423.588 178.5,425C 181.726,426.198 184.559,428.031 187,430.5C 190.153,435.692 192.32,441.192 193.5,447C 203.494,447.5 213.494,447.666 223.5,447.5C 223.5,452.833 223.5,458.167 223.5,463.5C 212.495,463.667 201.495,463.5 190.5,463C 186.49,461.657 182.99,459.491 180,456.5C 177.449,451.108 175.282,445.608 173.5,440C 163.506,439.5 153.506,439.334 143.5,439.5C 143.5,434.167 143.5,428.833 143.5,423.5 Z"/></g>
</svg>
