<?xml version="1.0" encoding="UTF-8"?>
<!DOCTYPE svg PUBLIC "-//W3C//DTD SVG 1.1//EN" "http://www.w3.org/Graphics/SVG/1.1/DTD/svg11.dtd">
<svg xmlns="http://www.w3.org/2000/svg" version="1.1" width="1024px" height="1024px" style="shape-rendering:geometricPrecision; text-rendering:geometricPrecision; image-rendering:optimizeQuality; fill-rule:evenodd; clip-rule:evenodd" xmlns:xlink="http://www.w3.org/1999/xlink">
<g><path style="opacity:1" fill="#fefefe" d="M -0.5,-0.5 C 340.833,-0.5 682.167,-0.5 1023.5,-0.5C 1023.5,340.833 1023.5,682.167 1023.5,1023.5C 682.167,1023.5 340.833,1023.5 -0.5,1023.5C -0.5,682.167 -0.5,340.833 -0.5,-0.5 Z"/></g>
<g><path style="opacity:1" fill="#b8c5cd" d="M 512.5,115.5 C 514.568,130.938 516.234,146.271 517.5,161.5C 517.455,179.176 517.789,196.842 518.5,214.5C 518.798,226.835 519.132,239.168 519.5,251.5C 514.693,241.08 509.693,230.747 504.5,220.5C 504.5,218.5 504.5,216.5 504.5,214.5C 505.444,193.174 505.611,171.84 505,150.5C 503.793,170.148 503.293,189.815 503.5,209.5C 502.549,210.919 502.216,212.585 502.5,214.5C 499.419,208.669 496.085,203.002 492.5,197.5C 492.411,183.48 492.911,169.48 494,155.5C 494.558,152.066 495.391,148.733 496.5,145.5C 500.599,135.381 504.432,125.048 508,114.5C 507.086,126.146 506.42,137.812 506,149.5C 507.863,135.17 509.697,120.837 511.5,106.5C 512.484,109.428 512.817,112.428 512.5,115.5 Z"/></g>
<g><path style="opacity:1" fill="#b7c4cc" d="M 515.5,115.5 C 520.269,128.713 524.769,142.046 529,155.5C 530.509,191.341 532.343,227.008 534.5,262.5C 534.501,271.515 534.834,280.515 535.5,289.5C 530.823,279.121 526.156,268.787 521.5,258.5C 521.795,256.265 521.461,254.265 520.5,252.5C 520.829,237.99 520.496,223.657 519.5,209.5C 519.557,190.158 519.223,170.825 518.5,151.5C 517.337,140.866 516.004,130.2 514.5,119.5C 514.511,117.955 514.844,116.622 515.5,115.5 Z"/></g>
<g><path style="opacity:1" fill="#5d4b4b" d="M 515.5,115.5 C 514.844,116.622 514.511,117.955 514.5,119.5C 516.004,130.2 517.337,140.866 518.5,151.5C 517.521,154.625 517.187,157.958 517.5,161.5C 516.234,146.271 514.568,130.938 512.5,115.5C 513.459,111.639 514.459,111.639 515.5,115.5 Z"/></g>
<g><path style="opacity:1" fill="#452f2e" d="M 518.5,151.5 C 519.223,170.825 519.557,190.158 519.5,209.5C 519.784,211.415 519.451,213.081 518.5,214.5C 517.789,196.842 517.455,179.176 517.5,161.5C 517.187,157.958 517.521,154.625 518.5,151.5 Z"/></g>
<g><path style="opacity:1" fill="#422c2b" d="M 504.5,214.5 C 503.549,213.081 503.216,211.415 503.5,209.5C 503.293,189.815 503.793,170.148 505,150.5C 505.611,171.84 505.444,193.174 504.5,214.5 Z"/></g>
<g><path style="opacity:1" fill="#3b1f1e" d="M 536.5,257.5 C 535.732,256.737 535.232,255.737 535,254.5C 534.503,257.146 534.336,259.813 534.5,262.5C 532.343,227.008 530.509,191.341 529,155.5C 524.769,142.046 520.269,128.713 515.5,115.5C 514.459,111.639 513.459,111.639 512.5,115.5C 512.817,112.428 512.484,109.428 511.5,106.5C 509.697,120.837 507.863,135.17 506,149.5C 506.42,137.812 507.086,126.146 508,114.5C 504.432,125.048 500.599,135.381 496.5,145.5C 496.649,144.448 496.483,143.448 496,142.5C 495.768,143.737 495.268,144.737 494.5,145.5C 498.569,131.129 503.736,117.129 510,103.5C 511,102.167 512,102.167 513,103.5C 520.099,119.041 526.099,135.041 531,151.5C 533.166,186.818 534.999,222.151 536.5,257.5 Z"/></g>
<g><path style="opacity:1" fill="#e1e3e5" d="M 492.5,197.5 C 496.085,203.002 499.419,208.669 502.5,214.5C 502.5,227.167 502.5,239.833 502.5,252.5C 501.527,254.948 501.194,257.615 501.5,260.5C 497.759,254.021 494.259,247.354 491,240.5C 490.505,238.527 490.338,236.527 490.5,234.5C 490.156,222.083 490.823,209.75 492.5,197.5 Z"/></g>
<g><path style="opacity:1" fill="#624c49" d="M 503.5,209.5 C 503.216,211.415 503.549,213.081 504.5,214.5C 504.5,216.5 504.5,218.5 504.5,220.5C 503.763,235.822 503.43,251.155 503.5,266.5C 503.5,267.833 503.5,269.167 503.5,270.5C 502.51,264.69 502.177,258.69 502.5,252.5C 502.5,239.833 502.5,227.167 502.5,214.5C 502.216,212.585 502.549,210.919 503.5,209.5 Z"/></g>
<g><path style="opacity:1" fill="#e6e8eb" d="M 504.5,220.5 C 509.693,230.747 514.693,241.08 519.5,251.5C 519.5,257.833 519.5,264.167 519.5,270.5C 519.5,277.167 519.5,283.833 519.5,290.5C 519.665,293.518 519.498,296.518 519,299.5C 514.331,288.168 509.165,277.168 503.5,266.5C 503.43,251.155 503.763,235.822 504.5,220.5 Z"/></g>
<g><path style="opacity:1" fill="#b8c4cc" d="M 490.5,234.5 C 490.338,236.527 490.505,238.527 491,240.5C 494.259,247.354 497.759,254.021 501.5,260.5C 501.5,265.833 501.5,271.167 501.5,276.5C 501.167,290.5 500.833,304.5 500.5,318.5C 500.5,321.833 500.5,325.167 500.5,328.5C 496.662,318.475 492.495,308.475 488,298.5C 487.828,304.681 487.328,310.681 486.5,316.5C 486.968,288.969 488.301,261.636 490.5,234.5 Z"/></g>
<g><path style="opacity:1" fill="#e5e7ea" d="M 521.5,258.5 C 526.156,268.787 530.823,279.121 535.5,289.5C 535.932,304.511 536.599,319.511 537.5,334.5C 537.665,337.85 537.498,341.183 537,344.5C 532.726,332.343 528.059,320.343 523,308.5C 522.823,304.644 522.323,300.977 521.5,297.5C 521.5,290.5 521.5,283.5 521.5,276.5C 521.5,270.5 521.5,264.5 521.5,258.5 Z"/></g>
<g><path style="opacity:1" fill="#5f4a47" d="M 519.5,209.5 C 520.496,223.657 520.829,237.99 520.5,252.5C 520.823,258.69 520.49,264.69 519.5,270.5C 519.5,264.167 519.5,257.833 519.5,251.5C 519.132,239.168 518.798,226.835 518.5,214.5C 519.451,213.081 519.784,211.415 519.5,209.5 Z"/></g>
<g><path style="opacity:1" fill="#bac8d0" d="M 503.5,266.5 C 509.165,277.168 514.331,288.168 519,299.5C 519.498,296.518 519.665,293.518 519.5,290.5C 519.833,290.5 520.167,290.5 520.5,290.5C 520.255,304.858 520.588,319.192 521.5,333.5C 521.527,352.507 521.861,371.507 522.5,390.5C 516.726,372.353 510.226,354.353 503,336.5C 502.826,341.351 502.326,346.018 501.5,350.5C 501.5,344.5 501.5,338.5 501.5,332.5C 502.496,318.677 502.829,304.677 502.5,290.5C 503.491,284.021 503.824,277.354 503.5,270.5C 503.5,269.167 503.5,267.833 503.5,266.5 Z"/></g>
<g><path style="opacity:1" fill="#8a8688" d="M 502.5,252.5 C 502.177,258.69 502.51,264.69 503.5,270.5C 503.824,277.354 503.491,284.021 502.5,290.5C 502.819,285.637 502.486,280.97 501.5,276.5C 501.5,271.167 501.5,265.833 501.5,260.5C 501.194,257.615 501.527,254.948 502.5,252.5 Z"/></g>
<g><path style="opacity:1" fill="#9b8f8d" d="M 520.5,252.5 C 521.461,254.265 521.795,256.265 521.5,258.5C 521.5,264.5 521.5,270.5 521.5,276.5C 520.514,280.97 520.181,285.637 520.5,290.5C 520.167,290.5 519.833,290.5 519.5,290.5C 519.5,283.833 519.5,277.167 519.5,270.5C 520.49,264.69 520.823,258.69 520.5,252.5 Z"/></g>
<g><path style="opacity:1" fill="#e4e6e8" d="M 500.5,328.5 C 500.167,345.167 499.833,361.833 499.5,378.5C 498.691,380.292 498.191,382.292 498,384.5C 493.725,377.595 489.225,370.928 484.5,364.5C 484.235,348.454 484.901,332.454 486.5,316.5C 487.328,310.681 487.828,304.681 488,298.5C 492.495,308.475 496.662,318.475 500.5,328.5 Z"/></g>
<g><path style="opacity:1" fill="#b9c6ce" d="M 521.5,297.5 C 522.323,300.977 522.823,304.644 523,308.5C 528.059,320.343 532.726,332.343 537,344.5C 537.498,341.183 537.665,337.85 537.5,334.5C 541.638,417.003 545.638,499.669 549.5,582.5C 539.979,569.123 532.813,554.456 528,538.5C 527.501,542.821 527.334,547.154 527.5,551.5C 526.504,538.01 526.171,524.344 526.5,510.5C 526.823,503.978 526.49,497.645 525.5,491.5C 525.552,473.491 525.219,455.491 524.5,437.5C 525.268,438.263 525.768,439.263 526,440.5C 527.006,435.389 527.506,430.222 527.5,425C 527.672,417.201 526.672,409.701 524.5,402.5C 524.806,399.615 524.473,396.948 523.5,394.5C 523.508,374.16 523.175,353.826 522.5,333.5C 522.3,321.495 521.966,309.495 521.5,297.5 Z"/></g>
<g><path style="opacity:1" fill="#63504d" d="M 521.5,276.5 C 521.5,283.5 521.5,290.5 521.5,297.5C 521.966,309.495 522.3,321.495 522.5,333.5C 522.167,333.5 521.833,333.5 521.5,333.5C 520.588,319.192 520.255,304.858 520.5,290.5C 520.181,285.637 520.514,280.97 521.5,276.5 Z"/></g>
<g><path style="opacity:1" fill="#756b6b" d="M 501.5,276.5 C 502.486,280.97 502.819,285.637 502.5,290.5C 502.829,304.677 502.496,318.677 501.5,332.5C 501.819,327.637 501.486,322.97 500.5,318.5C 500.833,304.5 501.167,290.5 501.5,276.5 Z"/></g>
<g><path style="opacity:1" fill="#e5e8ea" d="M 522.5,390.5 C 522.5,396.5 522.5,402.5 522.5,408.5C 522.175,415.687 522.509,422.687 523.5,429.5C 523.5,436.833 523.5,444.167 523.5,451.5C 517.647,460.728 514.647,470.894 514.5,482C 515.734,497.094 519.067,511.594 524.5,525.5C 524.216,527.415 524.549,529.081 525.5,530.5C 526.114,550.494 526.447,570.494 526.5,590.5C 515.549,573.603 505.882,555.936 497.5,537.5C 498.033,514.837 498.367,492.17 498.5,469.5C 499.49,463.355 499.823,457.022 499.5,450.5C 499.5,450.167 499.5,449.833 499.5,449.5C 507.823,442.852 511.823,434.186 511.5,423.5C 510.675,411.844 507.509,400.844 502,390.5C 501.5,384.175 501.334,377.842 501.5,371.5C 501.5,364.5 501.5,357.5 501.5,350.5C 502.326,346.018 502.826,341.351 503,336.5C 510.226,354.353 516.726,372.353 522.5,390.5 Z"/></g>
<g><path style="opacity:1" fill="#381b1a" d="M 536.5,257.5 C 543.575,385.129 549.909,512.796 555.5,640.5C 555.782,645.927 555.449,651.26 554.5,656.5C 539.681,669.864 534.181,686.531 538,706.5C 538.473,713.496 540.139,720.162 543,726.5C 554.163,726.299 564.997,723.966 575.5,719.5C 576.492,719.328 577.158,719.662 577.5,720.5C 569.799,724.266 561.799,727.433 553.5,730C 549.848,730.499 546.182,730.665 542.5,730.5C 530.7,727.339 520.7,721.339 512.5,712.5C 512.833,712.5 513.167,712.5 513.5,712.5C 519.911,718.393 527.245,722.893 535.5,726C 537.259,726.798 538.926,726.631 540.5,725.5C 539.246,722.806 538.246,720.139 537.5,717.5C 534.734,705.998 533.901,694.331 535,682.5C 536.471,678.419 538.138,674.419 540,670.5C 543.955,664.877 548.288,659.543 553,654.5C 553.026,645.676 552.526,637.01 551.5,628.5C 551.126,613.146 550.459,597.813 549.5,582.5C 545.638,499.669 541.638,417.003 537.5,334.5C 536.599,319.511 535.932,304.511 535.5,289.5C 534.834,280.515 534.501,271.515 534.5,262.5C 534.336,259.813 534.503,257.146 535,254.5C 535.232,255.737 535.732,256.737 536.5,257.5 Z"/></g>
<g><path style="opacity:1" fill="#381b1a" d="M 496.5,145.5 C 495.391,148.733 494.558,152.066 494,155.5C 492.911,169.48 492.411,183.48 492.5,197.5C 490.823,209.75 490.156,222.083 490.5,234.5C 488.301,261.636 486.968,288.969 486.5,316.5C 484.901,332.454 484.235,348.454 484.5,364.5C 478.847,461.475 474.014,558.475 470,655.5C 488.477,672.597 493.643,693.264 485.5,717.5C 484.516,720.051 483.516,722.718 482.5,725.5C 487.51,726.248 492.177,725.081 496.5,722C 500.975,719.35 504.975,716.183 508.5,712.5C 508.833,712.5 509.167,712.5 509.5,712.5C 509.833,712.5 510.167,712.5 510.5,712.5C 503.507,719.331 495.507,724.664 486.5,728.5C 475.419,731.742 464.752,730.575 454.5,725C 448.28,722.059 442.28,718.892 436.5,715.5C 445.166,718.5 453.833,721.5 462.5,724.5C 468.015,727.008 473.681,727.675 479.5,726.5C 485.041,713.066 486.875,699.066 485,684.5C 482.166,673.165 476.5,663.499 468,655.5C 467.833,651.333 467.667,647.167 467.5,643C 474.984,480.81 482.817,318.643 491,156.5C 491.498,152.509 492.665,148.842 494.5,145.5C 495.268,144.737 495.768,143.737 496,142.5C 496.483,143.448 496.649,144.448 496.5,145.5 Z"/></g>
<g><path style="opacity:1" fill="#5a4643" d="M 521.5,333.5 C 521.833,333.5 522.167,333.5 522.5,333.5C 523.175,353.826 523.508,374.16 523.5,394.5C 523.819,399.363 523.486,404.03 522.5,408.5C 522.5,402.5 522.5,396.5 522.5,390.5C 521.861,371.507 521.527,352.507 521.5,333.5 Z"/></g>
<g><path style="opacity:1" fill="#624d4a" d="M 500.5,318.5 C 501.486,322.97 501.819,327.637 501.5,332.5C 501.5,338.5 501.5,344.5 501.5,350.5C 501.5,357.5 501.5,364.5 501.5,371.5C 500.236,397.324 499.569,423.324 499.5,449.5C 499.5,449.833 499.5,450.167 499.5,450.5C 498.515,446.366 498.182,442.032 498.5,437.5C 498.415,417.824 498.748,398.157 499.5,378.5C 499.833,361.833 500.167,345.167 500.5,328.5C 500.5,325.167 500.5,321.833 500.5,318.5 Z"/></g>
<g><path style="opacity:1" fill="#bbc8d0" d="M 501.5,371.5 C 501.334,377.842 501.5,384.175 502,390.5C 507.509,400.844 510.675,411.844 511.5,423.5C 511.823,434.186 507.823,442.852 499.5,449.5C 499.569,423.324 500.236,397.324 501.5,371.5 Z"/></g>
<g><path style="opacity:1" fill="#e0e4e6" d="M 524.5,402.5 C 526.672,409.701 527.672,417.201 527.5,425C 527.506,430.222 527.006,435.389 526,440.5C 525.768,439.263 525.268,438.263 524.5,437.5C 524.5,429.5 524.5,421.5 524.5,413.5C 524.5,409.833 524.5,406.167 524.5,402.5 Z"/></g>
<g><path style="opacity:1" fill="#a19795" d="M 523.5,394.5 C 524.473,396.948 524.806,399.615 524.5,402.5C 524.5,406.167 524.5,409.833 524.5,413.5C 523.512,418.64 523.179,423.974 523.5,429.5C 522.509,422.687 522.175,415.687 522.5,408.5C 523.486,404.03 523.819,399.363 523.5,394.5 Z"/></g>
<g><path style="opacity:1" fill="#e5e8ea" d="M 497.5,453.5 C 497.5,454.5 497.5,455.5 497.5,456.5C 497.357,476.504 497.024,496.504 496.5,516.5C 495.675,520.647 495.175,524.981 495,529.5C 487.2,512.3 484.2,494.3 486,475.5C 488.028,467.106 491.862,459.772 497.5,453.5 Z"/></g>
<g><path style="opacity:1" fill="#bac7d0" d="M 523.5,451.5 C 524.2,470.825 524.533,490.159 524.5,509.5C 524.5,514.833 524.5,520.167 524.5,525.5C 519.067,511.594 515.734,497.094 514.5,482C 514.647,470.894 517.647,460.728 523.5,451.5 Z"/></g>
<g><path style="opacity:1" fill="#614f4d" d="M 524.5,413.5 C 524.5,421.5 524.5,429.5 524.5,437.5C 525.219,455.491 525.552,473.491 525.5,491.5C 525.823,497.69 525.49,503.69 524.5,509.5C 524.533,490.159 524.2,470.825 523.5,451.5C 523.5,444.167 523.5,436.833 523.5,429.5C 523.179,423.974 523.512,418.64 524.5,413.5 Z"/></g>
<g><path style="opacity:1" fill="#938888" d="M 498.5,437.5 C 498.182,442.032 498.515,446.366 499.5,450.5C 499.823,457.022 499.49,463.355 498.5,469.5C 498.818,464.968 498.485,460.634 497.5,456.5C 497.5,455.5 497.5,454.5 497.5,453.5C 497.179,447.974 497.512,442.64 498.5,437.5 Z"/></g>
<g><path style="opacity:1" fill="#604946" d="M 497.5,456.5 C 498.485,460.634 498.818,464.968 498.5,469.5C 498.367,492.17 498.033,514.837 497.5,537.5C 497.5,540.5 497.5,543.5 497.5,546.5C 496.514,542.03 496.181,537.363 496.5,532.5C 496.5,527.167 496.5,521.833 496.5,516.5C 497.024,496.504 497.357,476.504 497.5,456.5 Z"/></g>
<g><path style="opacity:1" fill="#827c7f" d="M 525.5,491.5 C 526.49,497.645 526.823,503.978 526.5,510.5C 525.509,516.979 525.176,523.646 525.5,530.5C 524.549,529.081 524.216,527.415 524.5,525.5C 524.5,520.167 524.5,514.833 524.5,509.5C 525.49,503.69 525.823,497.69 525.5,491.5 Z"/></g>
<g><path style="opacity:1" fill="#e4e7e9" d="M 549.5,582.5 C 550.459,597.813 551.126,613.146 551.5,628.5C 551.663,630.857 551.497,633.19 551,635.5C 544.036,622.073 536.536,609.073 528.5,596.5C 527.566,581.529 527.232,566.529 527.5,551.5C 527.334,547.154 527.501,542.821 528,538.5C 532.813,554.456 539.979,569.123 549.5,582.5 Z"/></g>
<g><path style="opacity:1" fill="#b9c7cf" d="M 484.5,364.5 C 489.225,370.928 493.725,377.595 498,384.5C 498.191,382.292 498.691,380.292 499.5,378.5C 498.748,398.157 498.415,417.824 498.5,437.5C 497.512,442.64 497.179,447.974 497.5,453.5C 491.862,459.772 488.028,467.106 486,475.5C 484.2,494.3 487.2,512.3 495,529.5C 495.175,524.981 495.675,520.647 496.5,516.5C 496.5,521.833 496.5,527.167 496.5,532.5C 495.51,538.645 495.177,544.978 495.5,551.5C 494.46,591.496 493.96,631.496 494,671.5C 495.381,631.512 496.214,591.512 496.5,551.5C 497.451,550.081 497.784,548.415 497.5,546.5C 497.5,543.5 497.5,540.5 497.5,537.5C 505.882,555.936 515.549,573.603 526.5,590.5C 527.166,609.493 527.5,628.493 527.5,647.5C 527.336,655.541 527.836,663.541 529,671.5C 529.827,657.994 529.66,644.66 528.5,631.5C 528.5,619.833 528.5,608.167 528.5,596.5C 536.536,609.073 544.036,622.073 551,635.5C 551.497,633.19 551.663,630.857 551.5,628.5C 552.526,637.01 553.026,645.676 553,654.5C 548.288,659.543 543.955,664.877 540,670.5C 538.138,674.419 536.471,678.419 535,682.5C 533.901,694.331 534.734,705.998 537.5,717.5C 537.5,718.5 537.5,719.5 537.5,720.5C 534.059,720.699 530.726,720.199 527.5,719C 522.62,716.729 517.954,714.229 513.5,711.5C 519.513,698.603 525.013,685.603 530,672.5C 523.572,685.022 517.406,697.689 511.5,710.5C 510.34,708.289 509.007,706.289 507.5,704.5C 508.167,707.167 508.833,709.833 509.5,712.5C 509.167,712.5 508.833,712.5 508.5,712.5C 501.265,715.745 493.765,718.079 486,719.5C 485.536,718.906 485.369,718.239 485.5,717.5C 493.643,693.264 488.477,672.597 470,655.5C 474.014,558.475 478.847,461.475 484.5,364.5 Z"/></g>
<g><path style="opacity:1" fill="#685959" d="M 496.5,532.5 C 496.181,537.363 496.514,542.03 497.5,546.5C 497.784,548.415 497.451,550.081 496.5,551.5C 496.167,551.5 495.833,551.5 495.5,551.5C 495.177,544.978 495.51,538.645 496.5,532.5 Z"/></g>
<g><path style="opacity:1" fill="#5c4a49" d="M 495.5,551.5 C 495.833,551.5 496.167,551.5 496.5,551.5C 496.214,591.512 495.381,631.512 494,671.5C 493.96,631.496 494.46,591.496 495.5,551.5 Z"/></g>
<g><path style="opacity:1" fill="#594442" d="M 526.5,510.5 C 526.171,524.344 526.504,538.01 527.5,551.5C 527.232,566.529 527.566,581.529 528.5,596.5C 528.5,608.167 528.5,619.833 528.5,631.5C 528.821,637.026 528.488,642.36 527.5,647.5C 527.5,628.493 527.166,609.493 526.5,590.5C 526.447,570.494 526.114,550.494 525.5,530.5C 525.176,523.646 525.509,516.979 526.5,510.5 Z"/></g>
<g><path style="opacity:1" fill="#6e6161" d="M 528.5,631.5 C 529.66,644.66 529.827,657.994 529,671.5C 527.836,663.541 527.336,655.541 527.5,647.5C 528.488,642.36 528.821,637.026 528.5,631.5 Z"/></g>
<g><path style="opacity:1" fill="#c8bfbe" d="M 555.5,640.5 C 556.164,642.978 556.497,645.645 556.5,648.5C 556.478,651.59 555.812,654.257 554.5,656.5C 555.449,651.26 555.782,645.927 555.5,640.5 Z"/></g>
<g><path style="opacity:1" fill="#523f40" d="M 513.5,711.5 C 513.5,711.833 513.5,712.167 513.5,712.5C 513.167,712.5 512.833,712.5 512.5,712.5C 511.833,712.5 511.167,712.5 510.5,712.5C 510.167,712.5 509.833,712.5 509.5,712.5C 508.833,709.833 508.167,707.167 507.5,704.5C 509.007,706.289 510.34,708.289 511.5,710.5C 517.406,697.689 523.572,685.022 530,672.5C 525.013,685.603 519.513,698.603 513.5,711.5 Z"/></g>
<g><path style="opacity:1" fill="#4d3938" d="M 507.5,704.5 C 501.633,695.101 497.133,685.101 494,674.5C 499.341,684.177 503.841,694.177 507.5,704.5 Z"/></g>
<g><path style="opacity:1" fill="#503029" d="M 436.5,715.5 C 430.712,712.605 424.712,710.272 418.5,708.5C 419.5,704.5 420.5,700.5 421.5,696.5C 419.901,696.232 418.568,696.566 417.5,697.5C 408.791,697.598 400.124,698.265 391.5,699.5C 394.862,703.611 398.195,707.611 401.5,711.5C 396.726,707.902 392.06,704.069 387.5,700C 386.663,698.989 386.33,697.822 386.5,696.5C 399.529,696.057 412.529,695.557 425.5,695C 424.478,697.545 423.312,700.045 422,702.5C 421.202,704.259 421.369,705.926 422.5,707.5C 427.555,709.688 432.222,712.355 436.5,715.5 Z"/></g>
<g><path style="opacity:1" fill="#d39c59" d="M 601.5,696.5 C 611.644,697.231 621.644,698.398 631.5,700C 607.629,727.517 578.129,746.017 543,755.5C 534.332,751.916 526.165,747.416 518.5,742C 516.004,739.344 514.004,736.344 512.5,733C 511.833,732.333 511.167,732.333 510.5,733C 509.601,734.652 508.601,736.152 507.5,737.5C 496.55,741.638 486.55,747.304 477.5,754.5C 457.647,749.239 439.313,740.739 422.5,729C 415.315,723.309 408.315,717.476 401.5,711.5C 398.195,707.611 394.862,703.611 391.5,699.5C 400.124,698.265 408.791,697.598 417.5,697.5C 418.239,697.369 418.906,697.536 419.5,698C 416.945,701.58 415.445,705.413 415,709.5C 428.309,720.073 443.142,727.906 459.5,733C 466.234,733.829 472.901,733.496 479.5,732C 482.281,731.478 484.615,730.311 486.5,728.5C 495.507,724.664 503.507,719.331 510.5,712.5C 511.167,712.5 511.833,712.5 512.5,712.5C 520.7,721.339 530.7,727.339 542.5,730.5C 542.918,731.222 543.584,731.722 544.5,732C 556.815,733.004 568.482,730.67 579.5,725C 589.454,719.78 598.954,713.946 608,707.5C 608.667,706.5 608.667,705.5 608,704.5C 605.242,702.249 603.075,699.582 601.5,696.5 Z"/></g>
<g><path style="opacity:1" fill="#9b7657" d="M 417.5,697.5 C 418.568,696.566 419.901,696.232 421.5,696.5C 420.5,700.5 419.5,704.5 418.5,708.5C 424.712,710.272 430.712,712.605 436.5,715.5C 442.28,718.892 448.28,722.059 454.5,725C 464.752,730.575 475.419,731.742 486.5,728.5C 484.615,730.311 482.281,731.478 479.5,732C 472.901,733.496 466.234,733.829 459.5,733C 443.142,727.906 428.309,720.073 415,709.5C 415.445,705.413 416.945,701.58 419.5,698C 418.906,697.536 418.239,697.369 417.5,697.5 Z"/></g>
<g><path style="opacity:1" fill="#45241c" d="M 543.5,760.5 C 541.492,762.268 539.326,763.934 537,765.5C 536.689,766.742 537.189,767.742 538.5,768.5C 535.367,769.933 532.2,771.266 529,772.5C 526.383,811.01 523.549,849.51 520.5,888C 520.667,890.833 520.833,893.667 521,896.5C 524.565,900.394 527.731,904.56 530.5,909C 529.578,912.256 527.578,914.589 524.5,916C 511.421,923.84 500.754,921.507 492.5,909C 495.652,904.511 498.819,900.011 502,895.5C 502.167,892.833 502.333,890.167 502.5,887.5C 499.595,849.16 496.595,810.826 493.5,772.5C 490.839,771.668 488.172,770.834 485.5,770C 484.273,768.413 484.606,767.079 486.5,766C 483.98,764.303 481.647,762.47 479.5,760.5C 478.325,760.719 477.325,760.386 476.5,759.5C 477.5,758.667 478.5,757.833 479.5,757C 448.511,750.34 422.511,735.174 401.5,711.5C 408.315,717.476 415.315,723.309 422.5,729C 439.313,740.739 457.647,749.239 477.5,754.5C 481.448,755.561 485.114,754.728 488.5,752C 494.034,748.302 499.701,744.802 505.5,741.5C 506.705,740.423 507.372,739.09 507.5,737.5C 508.601,736.152 509.601,734.652 510.5,733C 511.167,732.333 511.833,732.333 512.5,733C 514.004,736.344 516.004,739.344 518.5,742C 526.165,747.416 534.332,751.916 543,755.5C 578.129,746.017 607.629,727.517 631.5,700C 621.644,698.398 611.644,697.231 601.5,696.5C 600.957,696.56 600.624,696.893 600.5,697.5C 602.923,701.202 604.09,705.202 604,709.5C 602.951,708.483 601.784,708.316 600.5,709C 592.807,712.847 585.14,716.68 577.5,720.5C 577.158,719.662 576.492,719.328 575.5,719.5C 583.864,715.82 592.197,711.82 600.5,707.5C 601.196,703.222 600.196,699.222 597.5,695.5C 598.5,695.167 599.5,694.833 600.5,694.5C 612.482,695.69 624.482,696.69 636.5,697.5C 618.597,717.581 597.931,734.081 574.5,747C 564.214,750.488 553.881,753.821 543.5,757C 545.927,758.554 545.927,759.721 543.5,760.5 Z"/></g>
<g><path style="opacity:1" fill="#b54b37" d="M 506.5,839.5 C 506.219,834.291 506.219,829.291 506.5,824.5C 508.979,825.623 511.312,825.623 513.5,824.5C 516.573,823.801 519.573,822.801 522.5,821.5C 526.425,836.23 521.092,842.23 506.5,839.5 Z"/></g>
<g><path style="opacity:1" fill="#863a37" d="M 506.5,824.5 C 506.219,829.291 506.219,834.291 506.5,839.5C 504.321,839.16 502.488,838.16 501,836.5C 499.338,831.555 499.171,826.555 500.5,821.5C 502.604,822.519 504.604,823.519 506.5,824.5 Z"/></g>
<g><path style="opacity:1" fill="#d39b58" d="M 513.5,824.5 C 510.208,824.353 507.208,823.353 504.5,821.5C 504.033,806.504 503.7,791.504 503.5,776.5C 505.865,777.594 508.365,778.261 511,778.5C 513.221,778.607 515.054,777.94 516.5,776.5C 519.833,775.5 523.167,774.5 526.5,773.5C 525.806,788.851 524.806,804.184 523.5,819.5C 519.887,820.802 516.554,822.469 513.5,824.5 Z"/></g>
<g><path style="opacity:1" fill="#997556" d="M 503.5,776.5 C 503.7,791.504 504.033,806.504 504.5,821.5C 502.742,821.123 501.075,820.456 499.5,819.5C 498.027,804.185 497.193,788.852 497,773.5C 499.415,774.132 501.582,775.132 503.5,776.5 Z"/></g>
<g><path style="opacity:1" fill="#cd9756" d="M 503.5,749.5 C 502.72,755.65 500.554,761.65 497,767.5C 495.89,769.037 494.39,769.703 492.5,769.5C 490.692,769.509 489.025,769.009 487.5,768C 494.479,763.192 499.813,757.025 503.5,749.5 Z"/></g>
<g><path style="opacity:1" fill="#977151" d="M 507.5,754.5 C 507.475,760.459 505.808,765.792 502.5,770.5C 501.518,771.141 500.518,771.807 499.5,772.5C 497.115,771.339 494.781,770.339 492.5,769.5C 494.39,769.703 495.89,769.037 497,767.5C 500.554,761.65 502.72,755.65 503.5,749.5C 505.205,746.958 506.705,744.292 508,741.5C 508.096,745.199 507.596,748.866 506.5,752.5C 506.543,753.416 506.876,754.083 507.5,754.5 Z"/></g>
<g><path style="opacity:1" fill="#967253" d="M 485.5,762.5 C 492.146,757.854 497.812,752.188 502.5,745.5C 502.897,744.475 503.563,744.308 504.5,745C 500.819,753.017 495.319,759.517 488,764.5C 487.005,763.934 486.172,763.267 485.5,762.5 Z"/></g>
<g><path style="opacity:1" fill="#987354" d="M 522.5,746.5 C 525.593,751.136 529.593,755.636 534.5,760C 536.025,761.009 537.692,761.509 539.5,761.5C 537.563,762.641 535.563,763.475 533.5,764C 527.182,758.841 522.182,752.674 518.5,745.5C 520.031,744.579 521.365,744.912 522.5,746.5 Z"/></g>
<g><path style="opacity:1" fill="#cd9757" d="M 522.5,746.5 C 528.308,750.241 534.308,753.741 540.5,757C 542.063,757.759 543.063,758.926 543.5,760.5C 542.167,760.833 540.833,761.167 539.5,761.5C 537.692,761.509 536.025,761.009 534.5,760C 529.593,755.636 525.593,751.136 522.5,746.5 Z"/></g>
<g><path style="opacity:1" fill="#cf9857" d="M 502.5,745.5 C 497.812,752.188 492.146,757.854 485.5,762.5C 483.5,761.833 481.5,761.167 479.5,760.5C 480.957,758.215 482.957,756.382 485.5,755C 491.221,751.809 496.888,748.642 502.5,745.5 Z"/></g>
<g><path style="opacity:1" fill="#997455" d="M 507.5,737.5 C 507.372,739.09 506.705,740.423 505.5,741.5C 499.701,744.802 494.034,748.302 488.5,752C 485.114,754.728 481.448,755.561 477.5,754.5C 486.55,747.304 496.55,741.638 507.5,737.5 Z"/></g>
<g><path style="opacity:1" fill="#d09957" d="M 512.5,738.5 C 513.214,744.905 514.381,751.239 516,757.5C 516.581,753.064 516.081,748.731 514.5,744.5C 514.543,743.584 514.876,742.917 515.5,742.5C 520.047,752.56 526.714,761.06 535.5,768C 531.127,769.004 526.961,770.504 523,772.5C 521.181,770.874 519.848,768.874 519,766.5C 518.674,769.332 519.174,771.999 520.5,774.5C 518.62,774.229 517.287,774.896 516.5,776.5C 510.952,777.933 505.952,776.767 501.5,773C 502.252,772.329 502.586,771.496 502.5,770.5C 505.808,765.792 507.475,760.459 507.5,754.5C 508.924,747.869 510.258,741.202 511.5,734.5C 512.429,735.689 512.762,737.022 512.5,738.5 Z"/></g>
<g><path style="opacity:1" fill="#754a2a" d="M 512.5,738.5 C 514.201,739.211 515.201,740.545 515.5,742.5C 514.876,742.917 514.543,743.584 514.5,744.5C 516.081,748.731 516.581,753.064 516,757.5C 514.381,751.239 513.214,744.905 512.5,738.5 Z"/></g>
<g><path style="opacity:1" fill="#c6bdbb" d="M 462.5,724.5 C 468.134,725.427 473.801,726.093 479.5,726.5C 473.681,727.675 468.015,727.008 462.5,724.5 Z"/></g>
<g><path style="opacity:1" fill="#8593bc" d="M 513.5,712.5 C 513.5,712.167 513.5,711.833 513.5,711.5C 517.954,714.229 522.62,716.729 527.5,719C 530.726,720.199 534.059,720.699 537.5,720.5C 537.5,719.5 537.5,718.5 537.5,717.5C 538.246,720.139 539.246,722.806 540.5,725.5C 538.926,726.631 537.259,726.798 535.5,726C 527.245,722.893 519.911,718.393 513.5,712.5 Z"/></g>
<g><path style="opacity:1" fill="#8593bd" d="M 508.5,712.5 C 504.975,716.183 500.975,719.35 496.5,722C 492.177,725.081 487.51,726.248 482.5,725.5C 483.516,722.718 484.516,720.051 485.5,717.5C 485.369,718.239 485.536,718.906 486,719.5C 493.765,718.079 501.265,715.745 508.5,712.5 Z"/></g>
<g><path style="opacity:1" fill="#9a7556" d="M 601.5,696.5 C 603.075,699.582 605.242,702.249 608,704.5C 608.667,705.5 608.667,706.5 608,707.5C 598.954,713.946 589.454,719.78 579.5,725C 568.482,730.67 556.815,733.004 544.5,732C 543.584,731.722 542.918,731.222 542.5,730.5C 546.182,730.665 549.848,730.499 553.5,730C 561.799,727.433 569.799,724.266 577.5,720.5C 585.14,716.68 592.807,712.847 600.5,709C 601.784,708.316 602.951,708.483 604,709.5C 604.09,705.202 602.923,701.202 600.5,697.5C 600.624,696.893 600.957,696.56 601.5,696.5 Z"/></g>
<g><path style="opacity:1" fill="#9b7757" d="M 508.5,842.5 C 507.839,844.134 507.506,845.967 507.5,848C 509.598,864.77 510.598,881.603 510.5,898.5C 513.167,898.167 515.833,897.833 518.5,897.5C 514.418,899.654 510.084,899.987 505.5,898.5C 503.335,878.522 501.835,858.522 501,838.5C 503.514,840.004 506.014,841.338 508.5,842.5 Z"/></g>
<g><path style="opacity:1" fill="#d39c58" d="M 518.5,897.5 C 515.833,897.833 513.167,898.167 510.5,898.5C 510.598,881.603 509.598,864.77 507.5,848C 507.506,845.967 507.839,844.134 508.5,842.5C 513.452,842.683 517.952,841.349 522,838.5C 520.464,858.115 519.297,877.781 518.5,897.5 Z"/></g>
<g><path style="opacity:1" fill="#d29b58" d="M 501.5,915.5 C 502.398,912.534 503.731,909.7 505.5,907C 510.235,905.502 514.569,903.336 518.5,900.5C 518.783,899.711 519.283,899.044 520,898.5C 522.901,901.312 525.568,904.312 528,907.5C 528.269,910.28 527.102,912.446 524.5,914C 517.024,919.285 509.358,919.785 501.5,915.5 Z"/></g>
<g><path style="opacity:1" fill="#9b7657" d="M 518.5,900.5 C 514.569,903.336 510.235,905.502 505.5,907C 503.731,909.7 502.398,912.534 501.5,915.5C 498.371,914.205 496.038,912.038 494.5,909C 496.969,905.243 499.802,901.743 503,898.5C 507.81,901.664 512.976,902.331 518.5,900.5 Z"/></g>
</svg>
